<svg width="16" height="16" viewBox="0 0 16 16" fill="none" xmlns="http://www.w3.org/2000/svg">
<path d="M8.00005 11.2C9.76736 11.2 11.2 9.7673 11.2 7.99999C11.2 6.23268 9.76736 4.79999 8.00005 4.79999C6.23274 4.79999 4.80005 6.23268 4.80005 7.99999C4.80005 9.7673 6.23274 11.2 8.00005 11.2Z" fill="#EEEEEE"/>
<path d="M8.8 1.6552V0H7.2V1.6552C5.79224 1.83495 4.48397 2.47694 3.48046 3.48046C2.47694 4.48397 1.83495 5.79224 1.6552 7.2H0V8.8H1.6552C1.83468 10.2079 2.47659 11.5163 3.48016 12.5198C4.48373 13.5234 5.79214 14.1653 7.2 14.3448V16H8.8V14.3448C10.2079 14.1654 11.5164 13.5236 12.52 12.52C13.5236 11.5164 14.1654 10.2079 14.3448 8.8H16V7.2H14.3448C14.1653 5.79214 13.5234 4.48373 12.5198 3.48016C11.5163 2.47659 10.2079 1.83468 8.8 1.6552ZM8 12.8C5.3528 12.8 3.2 10.6472 3.2 8C3.2 5.3528 5.3528 3.2 8 3.2C10.6472 3.2 12.8 5.3528 12.8 8C12.8 10.6472 10.6472 12.8 8 12.8Z" fill="#EEEEEE"/>
</svg>
