<svg width="1026" height="93" viewBox="0 0 1026 93" fill="none" xmlns="http://www.w3.org/2000/svg">
<path d="M43.7015 89V91H45.7015V89H43.7015ZM25.5374 89H23.5374V91H25.5374V89ZM25.5374 18.4531H27.5374V16.4531H25.5374V18.4531ZM2.2757 18.4531H0.275696V20.4531H2.2757V18.4531ZM2.2757 3.33594V1.33594H0.275696V3.33594H2.2757ZM66.9632 3.33594H68.9632V1.33594H66.9632V3.33594ZM66.9632 18.4531V20.4531H68.9632V18.4531H66.9632ZM43.7015 18.4531V16.4531H41.7015V18.4531H43.7015ZM43.7015 87H25.5374V91H43.7015V87ZM27.5374 89V18.4531H23.5374V89H27.5374ZM25.5374 16.4531H2.2757V20.4531H25.5374V16.4531ZM4.2757 18.4531V3.33594H0.275696V18.4531H4.2757ZM2.2757 5.33594H66.9632V1.33594H2.2757V5.33594ZM64.9632 3.33594V18.4531H68.9632V3.33594H64.9632ZM66.9632 16.4531H43.7015V20.4531H66.9632V16.4531ZM41.7015 18.4531V89H45.7015V18.4531H41.7015ZM98.3109 41.3633H96.3109V43.3633H98.3109V41.3633ZM116.768 20.7969L115.714 22.4969L115.725 22.5034L116.768 20.7969ZM98.3109 18.2188V16.2188H96.3109V18.2188H98.3109ZM98.3109 56.1289V54.1289H96.3109V56.1289H98.3109ZM98.3109 89V91H100.311V89H98.3109ZM80.1468 89H78.1468V91H80.1468V89ZM80.1468 3.33594V1.33594H78.1468V3.33594H80.1468ZM130.948 9.72266L129.735 11.3133L129.742 11.3186L130.948 9.72266ZM135.166 42.4766L136.797 43.6344L136.803 43.6267L135.166 42.4766ZM123.389 51.6758L122.586 49.8441L120.398 50.8033L121.727 52.7883L123.389 51.6758ZM148.584 89V91H152.408L150.227 87.8592L148.584 89ZM128.428 89L126.73 90.0565L127.317 91H128.428V89ZM107.979 56.1289L109.677 55.0724L109.09 54.1289H107.979V56.1289ZM98.3109 43.3633H104.17V39.3633H98.3109V43.3633ZM104.17 43.3633C110.059 43.3633 114.796 42.3958 118.032 40.1307L115.738 36.8537C113.505 38.4167 109.765 39.3633 104.17 39.3633V43.3633ZM118.032 40.1307C121.426 37.755 122.987 34.0542 122.987 29.4688H118.987C118.987 33.0864 117.813 35.4012 115.738 36.8537L118.032 40.1307ZM122.987 29.4688C122.987 24.8971 121.362 21.2605 117.811 19.0903L115.725 22.5034C117.799 23.7707 118.987 25.9154 118.987 29.4688H122.987ZM117.821 19.0969C114.568 17.0808 109.794 16.2188 103.819 16.2188V20.2188C109.562 20.2188 113.421 21.0755 115.714 22.4969L117.821 19.0969ZM103.819 16.2188H98.3109V20.2188H103.819V16.2188ZM96.3109 18.2188V41.3633H100.311V18.2188H96.3109ZM96.3109 56.1289V89H100.311V56.1289H96.3109ZM98.3109 87H80.1468V91H98.3109V87ZM82.1468 89V3.33594H78.1468V89H82.1468ZM80.1468 5.33594H105.108V1.33594H80.1468V5.33594ZM105.108 5.33594C116.573 5.33594 124.661 7.4455 129.735 11.3133L132.16 8.13205C126.062 3.48418 116.923 1.33594 105.108 1.33594V5.33594ZM129.742 11.3186C134.711 15.071 137.326 20.8316 137.326 29H141.326C141.326 19.9028 138.356 12.8118 132.153 8.12668L129.742 11.3186ZM137.326 29C137.326 33.647 136.056 37.7336 133.53 41.3264L136.803 43.6267C139.824 39.3289 141.326 34.4311 141.326 29H137.326ZM133.536 41.3187C131.003 44.8856 127.385 47.7398 122.586 49.8441L124.192 53.5074C129.549 51.1587 133.783 47.88 136.797 43.6344L133.536 41.3187ZM121.727 52.7883C134.615 72.0425 143.024 84.499 146.942 90.1408L150.227 87.8592C146.332 82.251 137.944 69.8247 125.051 50.5633L121.727 52.7883ZM148.584 87H128.428V91H148.584V87ZM130.126 87.9435L109.677 55.0724L106.281 57.1854L126.73 90.0565L130.126 87.9435ZM107.979 54.1289H98.3109V58.1289H107.979V54.1289ZM211.807 89L209.894 89.5828L210.325 91H211.807V89ZM205.596 68.6094L207.509 68.0266L207.078 66.6094H205.596V68.6094ZM174.366 68.6094V66.6094H172.884L172.452 68.0266L174.366 68.6094ZM168.155 89V91H169.636L170.068 89.5828L168.155 89ZM148.584 89L146.697 88.3368L145.761 91H148.584V89ZM178.819 2.98438V0.984375H177.402L176.932 2.32116L178.819 2.98438ZM201.026 2.98438L202.912 2.31887L202.441 0.984375H201.026V2.98438ZM231.377 89V91H234.204L233.263 88.3345L231.377 89ZM201.26 53.375V55.375H203.976L203.17 52.7814L201.26 53.375ZM191.534 22.0273L189.613 22.585L189.617 22.5992L189.621 22.6133L191.534 22.0273ZM190.01 16.2852L191.962 15.8513L188.073 15.7859L190.01 16.2852ZM178.936 53.375L177.025 52.7847L176.225 55.375H178.936V53.375ZM213.72 88.4172L207.509 68.0266L203.683 69.1921L209.894 89.5828L213.72 88.4172ZM205.596 66.6094H174.366V70.6094H205.596V66.6094ZM172.452 68.0266L166.241 88.4172L170.068 89.5828L176.279 69.1921L172.452 68.0266ZM168.155 87H148.584V91H168.155V87ZM150.471 89.6632L180.706 3.64759L176.932 2.32116L146.697 88.3368L150.471 89.6632ZM178.819 4.98438H201.026V0.984375H178.819V4.98438ZM199.14 3.64988L229.491 89.6655L233.263 88.3345L202.912 2.31887L199.14 3.64988ZM231.377 87H211.807V91H231.377V87ZM203.17 52.7814C197.427 34.302 194.186 23.8583 193.446 21.4413L189.621 22.6133C190.365 25.0401 193.609 35.4948 199.35 53.9686L203.17 52.7814ZM193.454 21.4697C192.756 19.0634 192.261 17.1964 191.962 15.8513L188.058 16.719C188.384 18.1865 188.905 20.1476 189.613 22.585L193.454 21.4697ZM188.073 15.7859C186.799 20.7297 183.124 33.0413 177.025 52.7847L180.847 53.9653C186.935 34.2556 190.643 21.8406 191.947 16.7845L188.073 15.7859ZM178.936 55.375H201.26V51.375H178.936V55.375ZM291.084 3.33594V1.33594H289.622L289.179 2.72917L291.084 3.33594ZM309.424 3.33594L311.318 3.97965L312.216 1.33594H309.424V3.33594ZM280.303 89V91H281.736L282.197 89.6437L280.303 89ZM260.498 89L258.604 89.6425L259.065 91H260.498V89ZM231.436 3.33594V1.33594H228.645L229.542 3.97849L231.436 3.33594ZM249.776 3.33594L251.683 2.73315L251.241 1.33594H249.776V3.33594ZM265.889 54.3125L267.805 53.7401L267.801 53.7249L267.796 53.7097L265.889 54.3125ZM268.643 64.8594L266.695 65.3132L266.698 65.3244L266.7 65.3355L268.643 64.8594ZM270.459 73.1797L268.481 73.4764L272.445 73.4171L270.459 73.1797ZM274.854 54.3125L272.948 53.7057L272.937 53.7408L272.927 53.7764L274.854 54.3125ZM291.084 5.33594H309.424V1.33594H291.084V5.33594ZM307.531 2.69223L278.409 88.3563L282.197 89.6437L311.318 3.97965L307.531 2.69223ZM280.303 87H260.498V91H280.303V87ZM262.392 88.3575L233.33 2.69339L229.542 3.97849L258.604 89.6425L262.392 88.3575ZM231.436 5.33594H249.776V1.33594H231.436V5.33594ZM247.869 3.93872L263.982 54.9153L267.796 53.7097L251.683 2.73315L247.869 3.93872ZM263.973 54.8849C264.856 57.8436 265.764 61.318 266.695 65.3132L270.591 64.4055C269.647 60.3539 268.718 56.7971 267.805 53.7401L263.973 54.8849ZM266.7 65.3355C267.678 69.325 268.262 72.0159 268.481 73.4764L272.437 72.883C272.187 71.2185 271.561 68.3625 270.585 64.3833L266.7 65.3355ZM272.445 73.4171C272.854 69.9939 274.278 63.8409 276.781 54.8486L272.927 53.7764C270.429 62.7529 268.924 69.1779 268.473 72.9422L272.445 73.4171ZM276.76 54.9193L292.99 3.94271L289.179 2.72917L272.948 53.7057L276.76 54.9193ZM369.6 89V91H371.6V89H369.6ZM320.264 89H318.264V91H320.264V89ZM320.264 3.33594V1.33594H318.264V3.33594H320.264ZM369.6 3.33594H371.6V1.33594H369.6V3.33594ZM369.6 18.2188V20.2188H371.6V18.2188H369.6ZM338.428 18.2188V16.2188H336.428V18.2188H338.428ZM338.428 37.0273H336.428V39.0273H338.428V37.0273ZM367.432 37.0273H369.432V35.0273H367.432V37.0273ZM367.432 51.9102V53.9102H369.432V51.9102H367.432ZM338.428 51.9102V49.9102H336.428V51.9102H338.428ZM338.428 74H336.428V76H338.428V74ZM369.6 74H371.6V72H369.6V74ZM369.6 87H320.264V91H369.6V87ZM322.264 89V3.33594H318.264V89H322.264ZM320.264 5.33594H369.6V1.33594H320.264V5.33594ZM367.6 3.33594V18.2188H371.6V3.33594H367.6ZM369.6 16.2188H338.428V20.2188H369.6V16.2188ZM336.428 18.2188V37.0273H340.428V18.2188H336.428ZM338.428 39.0273H367.432V35.0273H338.428V39.0273ZM365.432 37.0273V51.9102H369.432V37.0273H365.432ZM367.432 49.9102H338.428V53.9102H367.432V49.9102ZM336.428 51.9102V74H340.428V51.9102H336.428ZM338.428 76H369.6V72H338.428V76ZM367.6 74V89H371.6V74H367.6ZM387.53 89H385.53V91H387.53V89ZM387.53 3.33594V1.33594H385.53V3.33594H387.53ZM405.694 3.33594H407.694V1.33594H405.694V3.33594ZM405.694 74H403.694V76H405.694V74ZM440.44 74H442.44V72H440.44V74ZM440.44 89V91H442.44V89H440.44ZM389.53 89V3.33594H385.53V89H389.53ZM387.53 5.33594H405.694V1.33594H387.53V5.33594ZM403.694 3.33594V74H407.694V3.33594H403.694ZM405.694 76H440.44V72H405.694V76ZM438.44 74V89H442.44V74H438.44ZM440.44 87H387.53V91H440.44V87ZM504.717 89V91H506.717V89H504.717ZM455.381 89H453.381V91H455.381V89ZM455.381 3.33594V1.33594H453.381V3.33594H455.381ZM504.717 3.33594H506.717V1.33594H504.717V3.33594ZM504.717 18.2188V20.2188H506.717V18.2188H504.717ZM473.545 18.2188V16.2188H471.545V18.2188H473.545ZM473.545 37.0273H471.545V39.0273H473.545V37.0273ZM502.549 37.0273H504.549V35.0273H502.549V37.0273ZM502.549 51.9102V53.9102H504.549V51.9102H502.549ZM473.545 51.9102V49.9102H471.545V51.9102H473.545ZM473.545 74H471.545V76H473.545V74ZM504.717 74H506.717V72H504.717V74ZM504.717 87H455.381V91H504.717V87ZM457.381 89V3.33594H453.381V89H457.381ZM455.381 5.33594H504.717V1.33594H455.381V5.33594ZM502.717 3.33594V18.2188H506.717V3.33594H502.717ZM504.717 16.2188H473.545V20.2188H504.717V16.2188ZM471.545 18.2188V37.0273H475.545V18.2188H471.545ZM473.545 39.0273H502.549V35.0273H473.545V39.0273ZM500.549 37.0273V51.9102H504.549V37.0273H500.549ZM502.549 49.9102H473.545V53.9102H502.549V49.9102ZM471.545 51.9102V74H475.545V51.9102H471.545ZM473.545 76H504.717V72H473.545V76ZM502.717 74V89H506.717V74H502.717ZM540.811 41.3633H538.811V43.3633H540.811V41.3633ZM559.268 20.7969L558.214 22.4969L558.225 22.5034L559.268 20.7969ZM540.811 18.2188V16.2188H538.811V18.2188H540.811ZM540.811 56.1289V54.1289H538.811V56.1289H540.811ZM540.811 89V91H542.811V89H540.811ZM522.647 89H520.647V91H522.647V89ZM522.647 3.33594V1.33594H520.647V3.33594H522.647ZM573.448 9.72266L572.235 11.3133L572.242 11.3186L573.448 9.72266ZM577.666 42.4766L579.297 43.6344L579.302 43.6267L577.666 42.4766ZM565.889 51.6758L565.086 49.8441L562.898 50.8033L564.227 52.7883L565.889 51.6758ZM591.084 89V91H594.908L592.727 87.8592L591.084 89ZM570.928 89L569.23 90.0565L569.817 91H570.928V89ZM550.479 56.1289L552.177 55.0724L551.59 54.1289H550.479V56.1289ZM540.811 43.3633H546.67V39.3633H540.811V43.3633ZM546.67 43.3633C552.559 43.3633 557.296 42.3958 560.532 40.1307L558.238 36.8537C556.005 38.4167 552.265 39.3633 546.67 39.3633V43.3633ZM560.532 40.1307C563.926 37.755 565.487 34.0542 565.487 29.4688H561.487C561.487 33.0864 560.313 35.4012 558.238 36.8537L560.532 40.1307ZM565.487 29.4688C565.487 24.8971 563.862 21.2605 560.311 19.0903L558.225 22.5034C560.299 23.7707 561.487 25.9154 561.487 29.4688H565.487ZM560.321 19.0969C557.068 17.0808 552.294 16.2188 546.319 16.2188V20.2188C552.062 20.2188 555.921 21.0755 558.214 22.4969L560.321 19.0969ZM546.319 16.2188H540.811V20.2188H546.319V16.2188ZM538.811 18.2188V41.3633H542.811V18.2188H538.811ZM538.811 56.1289V89H542.811V56.1289H538.811ZM540.811 87H522.647V91H540.811V87ZM524.647 89V3.33594H520.647V89H524.647ZM522.647 5.33594H547.608V1.33594H522.647V5.33594ZM547.608 5.33594C559.073 5.33594 567.161 7.4455 572.235 11.3133L574.66 8.13205C568.562 3.48418 559.423 1.33594 547.608 1.33594V5.33594ZM572.242 11.3186C577.211 15.071 579.826 20.8316 579.826 29H583.826C583.826 19.9028 580.856 12.8118 574.653 8.12668L572.242 11.3186ZM579.826 29C579.826 33.647 578.556 37.7336 576.03 41.3264L579.302 43.6267C582.324 39.3289 583.826 34.4311 583.826 29H579.826ZM576.036 41.3187C573.503 44.8856 569.885 47.7398 565.086 49.8441L566.692 53.5074C572.049 51.1587 576.283 47.88 579.297 43.6344L576.036 41.3187ZM564.227 52.7883C577.115 72.0425 585.524 84.499 589.442 90.1408L592.727 87.8592C588.832 82.251 580.444 69.8247 567.551 50.5633L564.227 52.7883ZM591.084 87H570.928V91H591.084V87ZM572.626 87.9435L552.177 55.0724L548.781 57.1854L569.23 90.0565L572.626 87.9435ZM550.479 54.1289H540.811V58.1289H550.479V54.1289ZM614.873 3.33594L616.561 2.26219L615.971 1.33594H614.873V3.33594ZM615.694 4.625L617.632 5.11702L617.845 4.27989L617.381 3.55125L615.694 4.625ZM605.381 32.6914V34.6914H606.678L607.207 33.5073L605.381 32.6914ZM592.549 32.6914L590.601 32.2374L590.029 34.6914H592.549V32.6914ZM598.409 3.33594V1.33594H596.688L596.431 3.0369L598.409 3.33594ZM613.186 4.40969L614.006 5.69875L617.381 3.55125L616.561 2.26219L613.186 4.40969ZM613.755 4.13298C611.841 11.676 608.452 20.9166 603.555 31.8755L607.207 33.5073C612.154 22.4349 615.64 12.9646 617.632 5.11702L613.755 4.13298ZM605.381 30.6914H592.549V34.6914H605.381V30.6914ZM594.497 33.1454C597.199 21.5529 599.165 11.7127 600.386 3.63498L596.431 3.0369C595.231 10.9748 593.29 20.7049 590.601 32.2374L594.497 33.1454ZM598.409 5.33594H614.873V1.33594H598.409V5.33594ZM670.069 83.4922L668.822 81.9283L668.817 81.9326L670.069 83.4922ZM622.608 85.0156H620.608V86.2641L621.729 86.8124L622.608 85.0156ZM622.608 68.1406L623.422 66.314L620.608 65.0589V68.1406H622.608ZM637.256 73.5898L636.744 75.5233L636.749 75.5245L637.256 73.5898ZM657.412 72.8867L656.256 71.2553L656.248 71.2603L656.241 71.2654L657.412 72.8867ZM659.229 61.6367L657.595 62.7901L657.603 62.8016L657.611 62.8131L659.229 61.6367ZM655.069 57.8281L653.951 59.4867L653.959 59.4922L653.967 59.4977L655.069 57.8281ZM643.994 52.0273L644.853 50.2211L644.845 50.2174L643.994 52.0273ZM631.28 8.60938L629.992 7.07864L629.987 7.08348L631.28 8.60938ZM665.323 3.6875L664.815 5.62214L664.82 5.62333L665.323 3.6875ZM678.037 8.14062L679.885 8.90714L680.639 7.08888L678.833 6.30571L678.037 8.14062ZM672.178 22.2617L671.419 24.1121L673.262 24.8681L674.025 23.0282L672.178 22.2617ZM660.811 18.3359L660.326 20.2762L660.332 20.2777L660.811 18.3359ZM642.471 30.1133L640.766 31.1584L640.773 31.171L640.781 31.1834L642.471 30.1133ZM645.987 33.5703L644.832 35.2031L644.854 35.2191L644.877 35.2344L645.987 33.5703ZM657.53 39.5469L658.392 37.7425L658.391 37.742L657.53 39.5469ZM673.994 51.0898L672.408 52.3077L672.414 52.3155L673.994 51.0898ZM676.448 65.2109C676.448 72.3943 673.888 77.8893 668.822 81.9283L671.315 85.0561C677.421 80.1889 680.448 73.4964 680.448 65.2109H676.448ZM668.817 81.9326C663.742 86.0067 656.509 88.1719 646.866 88.1719V92.1719C657.066 92.1719 665.302 89.884 671.321 85.0518L668.817 81.9326ZM646.866 88.1719C637.978 88.1719 630.202 86.5019 623.486 83.2189L621.729 86.8124C629.076 90.4043 637.471 92.1719 646.866 92.1719V88.1719ZM624.608 85.0156V68.1406H620.608V85.0156H624.608ZM621.793 69.9672C627.626 72.5685 632.617 74.4307 636.744 75.5233L637.768 71.6564C633.927 70.6396 629.152 68.869 623.422 66.314L621.793 69.9672ZM636.749 75.5245C640.898 76.6122 644.744 77.1719 648.272 77.1719V73.1719C645.159 73.1719 641.661 72.6769 637.763 71.6552L636.749 75.5245ZM648.272 77.1719C652.467 77.1719 655.995 76.3771 658.583 74.5081L656.241 71.2654C654.611 72.4432 652.045 73.1719 648.272 73.1719V77.1719ZM658.569 74.5182C661.328 72.5622 662.635 69.6398 662.635 66.0898H658.635C658.635 68.5555 657.794 70.1643 656.256 71.2553L658.569 74.5182ZM662.635 66.0898C662.635 64.0117 662.046 62.1103 660.846 60.4604L657.611 62.8131C658.286 63.7412 658.635 64.8086 658.635 66.0898H662.635ZM660.863 60.4834C659.74 58.8934 658.145 57.4614 656.17 56.1586L653.967 59.4977C655.664 60.6167 656.842 61.7238 657.595 62.7901L660.863 60.4834ZM656.186 56.1696C654.247 54.8623 650.422 52.8689 644.853 50.2212L643.136 53.8335C648.739 56.4982 652.297 58.3721 653.951 59.4867L656.186 56.1696ZM644.845 50.2174C639.682 47.7897 635.943 45.5179 633.526 43.4254L630.908 46.4496C633.725 48.8883 637.838 51.3431 643.143 53.8373L644.845 50.2174ZM633.526 43.4254C631.096 41.3216 629.166 38.884 627.722 36.1054L624.173 37.9493C625.854 41.1864 628.104 44.0221 630.908 46.4496L633.526 43.4254ZM627.722 36.1054C626.333 33.4311 625.604 30.2427 625.604 26.4805H621.604C621.604 30.7651 622.437 34.608 624.173 37.9493L627.722 36.1054ZM625.604 26.4805C625.604 19.4046 627.965 14.0392 632.573 10.1353L629.987 7.08348C624.36 11.8515 621.604 18.4001 621.604 26.4805H625.604ZM632.567 10.1401C637.255 6.19794 643.853 4.10547 652.608 4.10547V0.105469C643.238 0.105469 635.617 2.34893 629.992 7.07865L632.567 10.1401ZM652.608 4.10547C656.902 4.10547 660.969 4.61379 664.815 5.62214L665.83 1.75286C661.629 0.651833 657.22 0.105469 652.608 0.105469V4.10547ZM664.82 5.62333C668.769 6.64857 672.909 8.09682 677.242 9.97554L678.833 6.30571C674.338 4.35631 670.001 2.8358 665.825 1.75167L664.82 5.62333ZM676.19 7.37411L670.331 21.4952L674.025 23.0282L679.885 8.90714L676.19 7.37411ZM672.937 20.4114C668.323 18.5182 664.432 17.1695 661.29 16.3942L660.332 20.2777C663.205 20.9867 666.893 22.2552 671.419 24.1121L672.937 20.4114ZM661.296 16.3957C658.178 15.6161 655.085 15.2227 652.022 15.2227V19.2227C654.74 19.2227 657.506 19.5714 660.326 20.2762L661.296 16.3957ZM652.022 15.2227C648.298 15.2227 645.122 16.0893 642.797 18.1179L645.426 21.1321C646.773 19.9576 648.871 19.2227 652.022 19.2227V15.2227ZM642.797 18.1179C640.498 20.1236 639.358 22.7768 639.358 25.8945H643.358C643.358 23.856 644.054 22.3295 645.426 21.1321L642.797 18.1179ZM639.358 25.8945C639.358 27.8167 639.807 29.5942 640.766 31.1584L644.176 29.0682C643.651 28.2105 643.358 27.1755 643.358 25.8945H639.358ZM640.781 31.1834C641.708 32.6472 643.099 33.9773 644.832 35.2031L647.142 31.9375C645.672 30.8977 644.718 29.9231 644.161 29.0432L640.781 31.1834ZM644.877 35.2344C646.66 36.4229 650.647 38.4772 656.668 41.3517L658.391 37.742C652.303 34.8353 648.595 32.9052 647.096 31.9062L644.877 35.2344ZM656.667 41.3513C664.588 45.1378 669.73 48.8195 672.408 52.3077L675.581 49.872C672.321 45.6258 666.487 41.6122 658.392 37.7425L656.667 41.3513ZM672.414 52.3155C675.07 55.7407 676.448 59.9978 676.448 65.2109H680.448C680.448 59.2522 678.856 54.0953 675.575 49.8642L672.414 52.3155ZM743.311 43.6484H741.311V45.6484H743.311V43.6484ZM761.826 40.3672L763.065 41.9375L763.072 41.9322L763.079 41.9268L761.826 40.3672ZM762.471 21.2656L761.149 22.766L761.155 22.7715L761.161 22.777L762.471 21.2656ZM743.311 18.2188V16.2188H741.311V18.2188H743.311ZM775.655 51.207L774.364 49.6791L774.359 49.6834L775.655 51.207ZM743.311 58.5312V56.5312H741.311V58.5312H743.311ZM743.311 89V91H745.311V89H743.311ZM725.147 89H723.147V91H725.147V89ZM725.147 3.33594V1.33594H723.147V3.33594H725.147ZM776.182 10.0742L774.902 11.6107L774.908 11.6157L774.914 11.6206L776.182 10.0742ZM743.311 45.6484H749.287V41.6484H743.311V45.6484ZM749.287 45.6484C755.078 45.6484 759.786 44.5242 763.065 41.9375L760.588 38.7969C758.321 40.5852 754.669 41.6484 749.287 41.6484V45.6484ZM763.079 41.9268C766.415 39.2483 767.987 35.3985 767.987 30.6992H763.987C763.987 34.4374 762.785 37.033 760.574 38.8076L763.079 41.9268ZM767.987 30.6992C767.987 26.0876 766.709 22.292 763.781 19.7542L761.161 22.777C762.92 24.3018 763.987 26.7952 763.987 30.6992H767.987ZM763.793 19.7652C760.956 17.2648 756.739 16.2188 751.573 16.2188V20.2188C756.328 20.2188 759.376 21.2039 761.149 22.766L763.793 19.7652ZM751.573 16.2188H743.311V20.2188H751.573V16.2188ZM741.311 18.2188V43.6484H745.311V18.2188H741.311ZM782.326 30.0547C782.326 38.8253 779.598 45.2586 774.364 49.6791L776.945 52.735C783.274 47.3898 786.326 39.7216 786.326 30.0547H782.326ZM774.359 49.6834C769.102 54.1536 761.446 56.5312 751.104 56.5312V60.5312C762.011 60.5312 770.723 58.0261 776.95 52.7307L774.359 49.6834ZM751.104 56.5312H743.311V60.5312H751.104V56.5312ZM741.311 58.5312V89H745.311V58.5312H741.311ZM743.311 87H725.147V91H743.311V87ZM727.147 89V3.33594H723.147V89H727.147ZM725.147 5.33594H752.51V1.33594H725.147V5.33594ZM752.51 5.33594C762.651 5.33594 770.008 7.53278 774.902 11.6107L777.462 8.53778C771.575 3.63128 763.151 1.33594 752.51 1.33594V5.33594ZM774.914 11.6206C779.762 15.5972 782.326 21.6153 782.326 30.0547H786.326C786.326 20.7597 783.461 13.4575 777.45 8.52779L774.914 11.6206ZM852.94 89L851.027 89.5828L851.458 91H852.94V89ZM846.729 68.6094L848.642 68.0266L848.21 66.6094H846.729V68.6094ZM815.498 68.6094V66.6094H814.017L813.585 68.0266L815.498 68.6094ZM809.287 89V91H810.769L811.201 89.5828L809.287 89ZM789.717 89L787.83 88.3368L786.894 91H789.717V89ZM819.951 2.98438V0.984375H818.535L818.065 2.32116L819.951 2.98438ZM842.159 2.98438L844.045 2.31887L843.574 0.984375H842.159V2.98438ZM872.51 89V91H875.337L874.396 88.3345L872.51 89ZM842.393 53.375V55.375H845.109L844.303 52.7814L842.393 53.375ZM832.666 22.0273L830.746 22.585L830.75 22.5992L830.754 22.6133L832.666 22.0273ZM831.143 16.2852L833.095 15.8513L829.206 15.7859L831.143 16.2852ZM820.069 53.375L818.158 52.7847L817.358 55.375H820.069V53.375ZM854.853 88.4172L848.642 68.0266L844.816 69.1921L851.027 89.5828L854.853 88.4172ZM846.729 66.6094H815.498V70.6094H846.729V66.6094ZM813.585 68.0266L807.374 88.4172L811.201 89.5828L817.412 69.1921L813.585 68.0266ZM809.287 87H789.717V91H809.287V87ZM791.604 89.6632L821.838 3.64759L818.065 2.32116L787.83 88.3368L791.604 89.6632ZM819.951 4.98438H842.159V0.984375H819.951V4.98438ZM840.272 3.64988L870.624 89.6655L874.396 88.3345L844.045 2.31887L840.272 3.64988ZM872.51 87H852.94V91H872.51V87ZM844.303 52.7814C838.56 34.302 835.319 23.8583 834.579 21.4413L830.754 22.6133C831.498 25.0401 834.742 35.4948 840.483 53.9686L844.303 52.7814ZM834.587 21.4697C833.888 19.0634 833.394 17.1964 833.095 15.8513L829.19 16.719C829.517 18.1865 830.038 20.1476 830.746 22.585L834.587 21.4697ZM829.206 15.7859C827.932 20.7297 824.257 33.0413 818.158 52.7847L821.98 53.9653C828.068 34.2556 831.776 21.8406 833.08 16.7845L829.206 15.7859ZM820.069 55.375H842.393V51.375H820.069V55.375ZM916.397 89V91H918.397V89H916.397ZM898.233 89H896.233V91H898.233V89ZM898.233 18.4531H900.233V16.4531H898.233V18.4531ZM874.971 18.4531H872.971V20.4531H874.971V18.4531ZM874.971 3.33594V1.33594H872.971V3.33594H874.971ZM939.659 3.33594H941.659V1.33594H939.659V3.33594ZM939.659 18.4531V20.4531H941.659V18.4531H939.659ZM916.397 18.4531V16.4531H914.397V18.4531H916.397ZM916.397 87H898.233V91H916.397V87ZM900.233 89V18.4531H896.233V89H900.233ZM898.233 16.4531H874.971V20.4531H898.233V16.4531ZM876.971 18.4531V3.33594H872.971V18.4531H876.971ZM874.971 5.33594H939.659V1.33594H874.971V5.33594ZM937.659 3.33594V18.4531H941.659V3.33594H937.659ZM939.659 16.4531H916.397V20.4531H939.659V16.4531ZM914.397 18.4531V89H918.397V18.4531H914.397ZM1023.04 89V91H1025.04V89H1023.04ZM1004.93 89H1002.93V91H1004.93V89ZM1004.93 52.0273H1006.93V50.0273H1004.93V52.0273ZM971.006 52.0273V50.0273H969.006V52.0273H971.006ZM971.006 89V91H973.006V89H971.006ZM952.842 89H950.842V91H952.842V89ZM952.842 3.33594V1.33594H950.842V3.33594H952.842ZM971.006 3.33594H973.006V1.33594H971.006V3.33594ZM971.006 36.9102H969.006V38.9102H971.006V36.9102ZM1004.93 36.9102V38.9102H1006.93V36.9102H1004.93ZM1004.93 3.33594V1.33594H1002.93V3.33594H1004.93ZM1023.04 3.33594H1025.04V1.33594H1023.04V3.33594ZM1023.04 87H1004.93V91H1023.04V87ZM1006.93 89V52.0273H1002.93V89H1006.93ZM1004.93 50.0273H971.006V54.0273H1004.93V50.0273ZM969.006 52.0273V89H973.006V52.0273H969.006ZM971.006 87H952.842V91H971.006V87ZM954.842 89V3.33594H950.842V89H954.842ZM952.842 5.33594H971.006V1.33594H952.842V5.33594ZM969.006 3.33594V36.9102H973.006V3.33594H969.006ZM971.006 38.9102H1004.93V34.9102H971.006V38.9102ZM1006.93 36.9102V3.33594H1002.93V36.9102H1006.93ZM1004.93 5.33594H1023.04V1.33594H1004.93V5.33594ZM1021.04 3.33594V89H1025.04V3.33594H1021.04Z" fill="white" fill-opacity="0.2"/>
</svg>
