<svg width="16" height="16" viewBox="0 0 16 16" fill="none" xmlns="http://www.w3.org/2000/svg">
<path d="M15.7646 3.55596C15.6218 3.28985 15.4174 3.06809 15.1712 2.91231C14.9251 2.75653 14.6456 2.67205 14.36 2.6671H3.78416L3.30495 0.658278C3.25653 0.464362 3.14851 0.293795 2.99848 0.174357C2.84845 0.0549193 2.66524 -0.00635246 2.47871 0.000521299H0.826237C0.607105 0.000521299 0.396949 0.0941687 0.241999 0.260862C0.0870497 0.427556 0 0.653641 0 0.889381C0 1.12512 0.0870497 1.35121 0.241999 1.5179C0.396949 1.68459 0.607105 1.77824 0.826237 1.77824H1.85077L4.13118 10.8979C4.1796 11.0919 4.28762 11.2624 4.43765 11.3819C4.58769 11.5013 4.77089 11.5626 4.95742 11.5557H12.3936C12.5461 11.5552 12.6956 11.5093 12.8254 11.423C12.9552 11.3367 13.0602 11.2134 13.1289 11.0668L15.839 5.23591C15.9564 4.97104 16.0111 4.67901 15.9981 4.38587C15.9852 4.09274 15.9049 3.80762 15.7646 3.55596ZM11.8813 9.77798H5.58536L4.2386 4.44482H14.36L11.8813 9.77798Z" fill="#EEEEEE"/>
<path d="M4.54429 16C5.22876 16 5.78364 15.4031 5.78364 14.6667C5.78364 13.9304 5.22876 13.3334 4.54429 13.3334C3.85981 13.3334 3.30493 13.9304 3.30493 14.6667C3.30493 15.4031 3.85981 16 4.54429 16Z" fill="#EEEEEE"/>
<path d="M12.8067 16C13.4912 16 14.046 15.4031 14.046 14.6667C14.046 13.9304 13.4912 13.3334 12.8067 13.3334C12.1222 13.3334 11.5673 13.9304 11.5673 14.6667C11.5673 15.4031 12.1222 16 12.8067 16Z" fill="#EEEEEE"/>
</svg>
